<svg width="21" height="21" viewBox="0 0 21 21" fill="none" xmlns="http://www.w3.org/2000/svg">
<path d="M14.9102 1.00244V3.43341" stroke="#B9C6DD" stroke-width="1.5" stroke-linecap="round" stroke-linejoin="round"/>
<path d="M6.375 1.00244V3.43341" stroke="#B9C6DD" stroke-width="1.5" stroke-linecap="round" stroke-linejoin="round"/>
<path d="M18.1098 2.21777H3.17609C2.61035 2.21777 2.06778 2.45063 1.66775 2.86511C1.26771 3.27959 1.04297 3.84175 1.04297 4.42792V18.7959C1.04297 19.3821 1.26771 19.9442 1.66775 20.3587C2.06778 20.7732 2.61035 21.006 3.17609 21.006H18.1098C18.39 21.006 18.6674 20.9489 18.9262 20.8378C19.185 20.7267 19.4201 20.5639 19.6182 20.3587C19.8163 20.1535 19.9734 19.9098 20.0806 19.6417C20.1878 19.3735 20.243 19.0861 20.243 18.7959V4.42792C20.243 4.13768 20.1878 3.85028 20.0806 3.58214C19.9734 3.31399 19.8163 3.07034 19.6182 2.86511C19.4201 2.65988 19.185 2.49708 18.9262 2.38601C18.6674 2.27494 18.39 2.21777 18.1098 2.21777Z" fill="url(#paint0_linear_3362_1513)"/>
<path d="M1.04297 7.74414H20.243" stroke="#69BAFF" stroke-width="1.5" stroke-linecap="round" stroke-linejoin="round"/>
<path d="M10.6565 11.8653C10.6038 11.8654 10.5523 11.8818 10.5085 11.9123C10.4648 11.9428 10.4307 11.9861 10.4107 12.0366C10.3906 12.0872 10.3855 12.1427 10.3959 12.1963C10.4063 12.2499 10.4318 12.2991 10.4691 12.3376C10.5065 12.3762 10.554 12.4025 10.6058 12.413C10.6575 12.4236 10.7111 12.4181 10.7599 12.3971C10.8086 12.3762 10.8502 12.3407 10.8795 12.2953C10.9088 12.2498 10.9244 12.1964 10.9244 12.1418C10.9246 12.1053 10.9179 12.0691 10.9045 12.0354C10.8911 12.0017 10.8714 11.971 10.8465 11.9453C10.8215 11.9196 10.7919 11.8992 10.7593 11.8855C10.7267 11.8717 10.6917 11.8649 10.6565 11.8653" stroke="#69BAFF" stroke-width="2" stroke-linecap="round" stroke-linejoin="round"/>
<path d="M10.6565 16.2866C10.6038 16.2868 10.5523 16.3032 10.5085 16.3337C10.4648 16.3642 10.4307 16.4075 10.4107 16.458C10.3906 16.5086 10.3855 16.5641 10.3959 16.6177C10.4063 16.6713 10.4318 16.7205 10.4691 16.759C10.5065 16.7976 10.554 16.8238 10.6058 16.8344C10.6575 16.845 10.7111 16.8395 10.7599 16.8185C10.8086 16.7976 10.8502 16.7621 10.8795 16.7167C10.9088 16.6712 10.9244 16.6178 10.9244 16.5632C10.9246 16.5267 10.9179 16.4905 10.9045 16.4568C10.8911 16.4231 10.8714 16.3924 10.8465 16.3667C10.8215 16.3409 10.7919 16.3206 10.7593 16.3069C10.7267 16.2931 10.6917 16.2862 10.6565 16.2866" stroke="#69BAFF" stroke-width="2" stroke-linecap="round" stroke-linejoin="round"/>
<path d="M4.89873 16.2866C4.84599 16.2868 4.79449 16.3032 4.75072 16.3337C4.70696 16.3642 4.67291 16.4075 4.65285 16.458C4.6328 16.5086 4.62765 16.5641 4.63806 16.6177C4.64846 16.6713 4.67396 16.7205 4.71132 16.759C4.74868 16.7976 4.79624 16.8238 4.84798 16.8344C4.89972 16.845 4.95333 16.8395 5.00204 16.8185C5.05075 16.7976 5.09238 16.7621 5.12166 16.7167C5.15094 16.6712 5.16657 16.6178 5.16657 16.5632C5.16683 16.5267 5.16007 16.4905 5.14669 16.4568C5.13331 16.4231 5.11357 16.3924 5.08864 16.3667C5.0637 16.3409 5.03407 16.3206 5.00146 16.3069C4.96885 16.2931 4.93393 16.2862 4.89873 16.2866" stroke="#69BAFF" stroke-width="2" stroke-linecap="round" stroke-linejoin="round"/>
<path d="M16.4183 11.8443C16.3655 11.8445 16.314 11.8608 16.2703 11.8913C16.2265 11.9218 16.1924 11.9651 16.1724 12.0156C16.1523 12.0662 16.1472 12.1218 16.1576 12.1753C16.168 12.2289 16.1935 12.2781 16.2308 12.3166C16.2682 12.3552 16.3158 12.3815 16.3675 12.392C16.4193 12.4026 16.4729 12.3971 16.5216 12.3761C16.5703 12.3552 16.6119 12.3197 16.6412 12.2743C16.6705 12.2288 16.6861 12.1754 16.6861 12.1208C16.6864 12.0843 16.6796 12.0481 16.6662 12.0144C16.6528 11.9807 16.6331 11.95 16.6082 11.9243C16.5832 11.8986 16.5536 11.8782 16.521 11.8645C16.4884 11.8507 16.4535 11.8439 16.4183 11.8443" stroke="#69BAFF" stroke-width="2" stroke-linecap="round" stroke-linejoin="round"/>
<defs>
<linearGradient id="paint0_linear_3362_1513" x1="2.82857" y1="-2.06595" x2="11.3032" y2="15.16" gradientUnits="userSpaceOnUse">
<stop stop-color="white" stop-opacity="0.502"/>
<stop offset="1" stop-color="white"/>
</linearGradient>
</defs>
</svg>
