<svg width="20" height="20" viewBox="0 0 20 20" fill="none" xmlns="http://www.w3.org/2000/svg">
<path d="M14.6422 -0.00292969H5.04219C2.39122 -0.00292969 0.242188 2.22371 0.242188 4.9704V14.9171C0.242188 17.6638 2.39122 19.8904 5.04219 19.8904H14.6422C17.2932 19.8904 19.4422 17.6638 19.4422 14.9171V4.9704C19.4422 2.22371 17.2932 -0.00292969 14.6422 -0.00292969Z" fill="url(#paint0_linear_3362_1523)"/>
<path d="M14.6416 8.94929C15.1718 8.94929 15.6016 8.50397 15.6016 7.95463C15.6016 7.40529 15.1718 6.95996 14.6416 6.95996L6.96156 6.95996C6.43137 6.95996 6.00156 7.40529 6.00156 7.95463C6.00156 8.50397 6.43137 8.94929 6.96156 8.94929H14.6416Z" fill="#69BAFF"/>
<path d="M8.87984 12.9278C9.41004 12.9278 9.83984 12.4825 9.83984 11.9331C9.83984 11.3838 9.41004 10.9385 8.87984 10.9385H5.03984C4.50965 10.9385 4.07984 11.3838 4.07984 11.9331C4.07984 12.4825 4.50965 12.9278 5.03984 12.9278H8.87984Z" fill="#69BAFF"/>
<defs>
<linearGradient id="paint0_linear_3362_1523" x1="-1.02501" y1="-4.33968" x2="12.9543" y2="15.4901" gradientUnits="userSpaceOnUse">
<stop stop-color="white" stop-opacity="0.502"/>
<stop offset="1" stop-color="white"/>
</linearGradient>
</defs>
</svg>
