<svg width="20" height="20" viewBox="0 0 20 20" fill="none" xmlns="http://www.w3.org/2000/svg">
<path d="M17.9645 5.85886L11.5651 0.698527C11.0034 0.2458 10.3121 0 9.60048 0C8.88885 0 8.19753 0.2458 7.63584 0.698527L1.23552 5.85886C0.850739 6.16869 0.539391 6.56554 0.325258 7.01909C0.111126 7.47265 -0.000126013 7.97091 1.07112e-07 8.47583V16.5804C1.07112e-07 17.4596 0.337108 18.3029 0.937165 18.9246C1.53722 19.5463 2.35107 19.8956 3.19968 19.8956H16.0003C16.8489 19.8956 17.6628 19.5463 18.2628 18.9246C18.8629 18.3029 19.2 17.4596 19.2 16.5804V8.47583C19.2001 7.97091 19.0889 7.47265 18.8747 7.01909C18.6606 6.56554 18.3493 6.16869 17.9645 5.85886Z" fill="url(#paint0_linear_3362_1509)"/>
<path d="M8.53516 15.4751H11.4152" stroke="#69BAFF" stroke-width="2.5" stroke-linecap="round" stroke-linejoin="round"/>
<defs>
<linearGradient id="paint0_linear_3362_1509" x1="1.0752" y1="-8.37605" x2="11.2854" y2="14.4182" gradientUnits="userSpaceOnUse">
<stop stop-color="white" stop-opacity="0.502"/>
<stop offset="1" stop-color="white"/>
</linearGradient>
</defs>
</svg>
