<svg width="16" height="16" viewBox="0 0 16 16" fill="none">
<circle cx="8" cy="8" r="7.75" fill="#68DDFF" stroke="#49A0E2" stroke-width="0.5"/>
<path d="M5.45452 5.99998H6.18182V9.99999H5.45452V5.99998ZM4 7.20002H4.72728V8.80001H4V7.20002ZM6.90911 4H7.63635V11.2H6.90911V4ZM8.36364 4.8H9.09088V12H8.36364V4.8ZM9.81817 5.99998H10.5455V9.99999H9.81817V5.99998ZM11.2727 7.20002H12V8.80001H11.2727V7.20002Z" fill="white"/>
<path d="M12.4961 3.97614C12.9961 4.97614 12.4961 4.9733 11.9961 4.9733C11.0105 4.9733 10.4023 4.47266 10.0156 3.48198C9.90319 2.97422 10.4141 2.96988 11.0195 3.02108C11.52 3.02498 12.2725 3.52893 12.4961 3.97614Z" fill="white" fill-opacity="0.38"/>
</svg>
