<svg width="20" height="20" viewBox="0 0 20 20" fill="none" xmlns="http://www.w3.org/2000/svg">
<path d="M13.2965 0.145434L13.9963 0.386577C14.3101 0.49346 14.5834 0.700041 14.7774 0.976963C14.9714 1.25389 15.0761 1.58706 15.0767 1.92914V2.96953C15.0763 3.39402 15.2363 3.80183 15.5226 4.10568C15.8089 4.40954 16.1986 4.58531 16.6084 4.59537L17.6144 4.61775C17.9003 4.62409 18.1791 4.71115 18.4206 4.86953C18.6622 5.02791 18.8575 5.25159 18.9853 5.51644L19.3154 6.20009C19.4628 6.50532 19.5138 6.85084 19.461 7.18771C19.4082 7.52458 19.2544 7.83571 19.0213 8.07702L18.3107 8.81287C18.0204 9.11362 17.8554 9.52003 17.851 9.94515C17.8465 10.3703 18.0029 10.7803 18.2866 11.0876L18.9829 11.8408C19.1816 12.0541 19.3203 12.3196 19.3837 12.6086C19.4472 12.8976 19.4331 13.199 19.343 13.4803L19.1101 14.205C19.0069 14.53 18.8074 14.813 18.54 15.0138C18.2725 15.2146 17.9508 15.3231 17.6204 15.3237H16.6109C16.2001 15.3233 15.8055 15.4897 15.512 15.7872C15.2184 16.0847 15.0492 16.4895 15.0407 16.9147L15.0191 17.9564C15.013 18.2524 14.9289 18.541 14.7759 18.7912C14.623 19.0414 14.407 19.2435 14.1512 19.3759L13.4909 19.7177C13.1962 19.8704 12.8625 19.9231 12.5371 19.8684C12.2118 19.8138 11.9113 19.6545 11.6783 19.4132L10.9676 18.6773C10.6772 18.3768 10.2847 18.206 9.87414 18.2013C9.46358 18.1967 9.06757 18.3586 8.77085 18.6525L8.04339 19.3734C7.83743 19.5792 7.58102 19.7227 7.30192 19.7884C7.02283 19.8542 6.7317 19.8396 6.46003 19.7463L5.76018 19.5052C5.44636 19.3983 5.17305 19.1917 4.9791 18.9148C4.78514 18.6379 4.68042 18.3047 4.67979 17.9626V16.9222C4.68309 16.4968 4.52513 16.0871 4.23985 15.781C3.95456 15.4749 3.56471 15.2969 3.15405 15.2852L2.14809 15.2628C1.86222 15.2565 1.58344 15.1694 1.34185 15.011C1.10026 14.8526 0.905021 14.629 0.777201 14.3641L0.447084 13.6805C0.299661 13.3752 0.248734 13.0297 0.30152 12.6928C0.354305 12.356 0.508126 12.0448 0.741188 11.8035L1.45184 11.0677C1.74173 10.7666 1.9063 10.36 1.91033 9.93489C1.91437 9.50977 1.75756 9.0999 1.47345 8.79298L0.777201 8.03973C0.578357 7.82626 0.439691 7.56054 0.376214 7.27134C0.312736 6.98213 0.326865 6.68046 0.417073 6.39897L0.649956 5.6743C0.753178 5.34935 0.952684 5.06634 1.22012 4.86551C1.48756 4.66468 1.80932 4.55624 2.13969 4.5556H3.14445C3.5542 4.55605 3.94786 4.3905 4.24128 4.09435C4.53469 3.79819 4.70457 3.39493 4.71461 2.97077L4.73621 1.92914C4.74311 1.63315 4.82763 1.34469 4.98073 1.09464C5.13383 0.844582 5.34974 0.642362 5.60532 0.509633L6.26556 0.167808C6.56034 0.0151574 6.89403 -0.037575 7.21936 0.0170825C7.54469 0.0717401 7.84516 0.231016 8.07821 0.472343L8.78886 1.2082C9.0793 1.5087 9.4718 1.67955 9.88236 1.6842C10.2929 1.68885 10.6889 1.52692 10.9856 1.23306L11.7131 0.512119C11.9192 0.306567 12.1756 0.163197 12.4547 0.0974805C12.7337 0.0317641 13.0248 0.0461957 13.2965 0.139219V0.145434Z" fill="white"/>
<path d="M11.9984 7.74249C12.4181 8.17711 12.7038 8.73082 12.8195 9.33359C12.9353 9.93636 12.8758 10.5611 12.6486 11.1289C12.4215 11.6967 12.0368 12.182 11.5433 12.5234C11.0498 12.8648 10.4696 13.047 9.87607 13.047C9.28255 13.047 8.70236 12.8648 8.20885 12.5234C7.71534 12.182 7.33069 11.6967 7.10352 11.1289C6.87635 10.5611 6.81688 9.93636 6.93261 9.33359C7.04834 8.73082 7.33409 8.17711 7.75372 7.74249C8.0324 7.45384 8.36327 7.22487 8.72743 7.06865C9.09159 6.91244 9.4819 6.83203 9.87607 6.83203C10.2702 6.83203 10.6606 6.91244 11.0247 7.06865C11.3889 7.22487 11.7197 7.45384 11.9984 7.74249Z" stroke="#49A0E2" stroke-width="1.5" stroke-linecap="round" stroke-linejoin="round"/>
</svg>
