<svg width="24" height="21" viewBox="0 0 24 21" fill="none" xmlns="http://www.w3.org/2000/svg">
<path d="M10.8 5.24118H10.9268L11.0152 5.15021L15.7268 0.3H17.7V19.4647H15.7268L11.0152 14.6145L10.9268 14.5235H10.8H8.4H8.1V14.8235V20.7H6C4.85382 20.7 3.9 19.7308 3.9 18.5294V14.8235V14.5235H3.6H2.4C1.25382 14.5235 0.3 13.5543 0.3 12.3529V7.41176C0.3 6.21037 1.25382 5.24118 2.4 5.24118H10.8ZM23.7 9.88235C23.7 11.7194 22.4177 13.1279 20.7 13.2754V6.48926C22.4177 6.63679 23.7 8.04526 23.7 9.88235Z" fill="white" stroke="#B6BEC9" stroke-width="0.6"/>
</svg>
