<svg width="26" height="24" viewBox="0 0 26 24" fill="none" xmlns="http://www.w3.org/2000/svg">
<path d="M20.1758 23.5409L25.5404 18.1762C25.8347 17.8813 26 17.4817 26 17.065C26 16.6484 25.8347 16.2487 25.5404 15.9539L23.0476 13.4611C22.9018 13.3149 22.7286 13.199 22.5379 13.1198C22.3473 13.0407 22.1429 13 21.9364 13C21.73 13 21.5256 13.0407 21.3349 13.1198C21.1443 13.199 20.9711 13.3149 20.8253 13.4611L15.4608 18.8257C15.3147 18.9714 15.1988 19.1444 15.1197 19.3349C15.0407 19.5255 15 19.7298 15 19.936V24H19.0639C19.4806 24 19.8804 23.8349 20.1758 23.5409Z" fill="#B6BEC9"/>
<path d="M17.791 2.65712e-07H4.10603C3.56676 -0.000196849 3.03275 0.109278 2.5345 0.322094C2.03624 0.534911 1.5835 0.846907 1.20218 1.24031C0.820856 1.63371 0.51844 2.1008 0.312159 2.61484C0.105877 3.12888 -0.000190803 3.67981 2.5766e-07 4.23616V16.9431C-0.000190803 17.4995 0.105877 18.0504 0.312159 18.5644C0.51844 19.0785 0.820856 19.5456 1.20218 19.939C1.5835 20.3324 2.03624 20.6444 2.5345 20.8572C3.03275 21.0701 3.56676 21.1795 4.10603 21.1793H9.87983C10.2159 21.1791 10.5481 21.1054 10.8546 20.9632C11.1611 20.821 11.4349 20.6135 11.658 20.3542L21.2965 9.16984C21.6829 8.72016 21.8965 8.14019 21.8971 7.53927V4.23918C21.8975 3.68263 21.7915 3.13143 21.5854 2.61713C21.3792 2.10283 21.0768 1.6355 20.6954 1.24182C20.3141 0.848139 19.8613 0.535855 19.363 0.322781C18.8646 0.109707 18.3305 1.26137e-07 17.791 2.65712e-07ZM10.1997 15.1776H5.47425C5.202 15.1776 4.94092 15.066 4.74841 14.8674C4.5559 14.6688 4.44774 14.3994 4.44774 14.1185C4.44774 13.8377 4.5559 13.5683 4.74841 13.3696C4.94092 13.171 5.202 13.0595 5.47425 13.0595H10.1997C10.472 13.0595 10.733 13.171 10.9256 13.3696C11.1181 13.5683 11.2262 13.8377 11.2262 14.1185C11.2262 14.3994 11.1181 14.6688 10.9256 14.8674C10.733 15.066 10.472 15.1776 10.1997 15.1776ZM14.9266 8.11832H5.47571C5.20346 8.11832 4.94238 8.00673 4.74987 7.80813C4.55736 7.60952 4.4492 7.34016 4.4492 7.05929C4.4492 6.77841 4.55736 6.50902 4.74987 6.31041C4.94238 6.1118 5.20346 6.00022 5.47571 6.00022H14.9266C15.1989 6.00022 15.46 6.1118 15.6525 6.31041C15.845 6.50902 15.9531 6.77841 15.9531 7.05929C15.9531 7.34016 15.845 7.60952 15.6525 7.80813C15.46 8.00673 15.1989 8.11832 14.9266 8.11832Z" fill="#B6BEC9"/>
<path d="M20.317 22.6218L24.6295 18.2037C24.8661 17.9609 24.999 17.6318 24.999 17.2887C24.999 16.9455 24.8661 16.6164 24.6295 16.3736L22.6256 14.3206C22.5084 14.2003 22.3692 14.1048 22.2159 14.0396C22.0626 13.9745 21.8983 13.9409 21.7324 13.9409C21.5664 13.9409 21.4021 13.9745 21.2488 14.0396C21.0956 14.1048 20.9563 14.2003 20.8392 14.3206L16.5267 18.7387C16.4093 18.8586 16.3161 19.0011 16.2525 19.158C16.1889 19.3149 16.1562 19.4832 16.1563 19.6531V22.9999H19.4231C19.7582 22.9999 20.0796 22.864 20.317 22.6218Z" fill="white"/>
<path d="M17.4231 1H4.79033C4.29252 0.99982 3.79958 1.10017 3.33963 1.29525C2.87968 1.49034 2.46175 1.77633 2.10975 2.13695C1.75774 2.49757 1.47858 2.92573 1.28816 3.39694C1.09774 3.86814 0.999824 4.37316 1 4.88315V16.5312C0.999824 17.0412 1.09774 17.5462 1.28816 18.0174C1.47858 18.4886 1.75774 18.9168 2.10975 19.2774C2.46175 19.638 2.87968 19.9241 3.33963 20.1191C3.79958 20.3142 4.29252 20.4145 4.79033 20.4144H10.1202C10.4304 20.4142 10.7371 20.3466 11.02 20.2163C11.303 20.0859 11.5557 19.8957 11.7617 19.658L20.6591 9.40569C21.0158 8.99348 21.213 8.46184 21.2135 7.911V4.88592C21.2138 4.37574 21.1161 3.87048 20.9257 3.39904C20.7354 2.92759 20.4562 2.49921 20.1042 2.13834C19.7522 1.77746 19.3343 1.4912 18.8742 1.29588C18.4142 1.10056 17.9211 1 17.4231 1ZM10.4155 14.9128H6.05335C5.80203 14.9128 5.56102 14.8105 5.38332 14.6284C5.20561 14.4464 5.10577 14.1995 5.10577 13.942C5.10577 13.6845 5.20561 13.4376 5.38332 13.2555C5.56102 13.0735 5.80203 12.9712 6.05335 12.9712H10.4155C10.6668 12.9712 10.9078 13.0735 11.0855 13.2555C11.2632 13.4376 11.3631 13.6845 11.3631 13.942C11.3631 14.1995 11.2632 14.4464 11.0855 14.6284C10.9078 14.8105 10.6668 14.9128 10.4155 14.9128ZM14.779 8.44179H6.0547C5.80338 8.44179 5.56238 8.33951 5.38467 8.15745C5.20696 7.97539 5.10712 7.72848 5.10712 7.47102C5.10712 7.21355 5.20696 6.9666 5.38467 6.78454C5.56238 6.60248 5.80338 6.5002 6.0547 6.5002H14.779C15.0303 6.5002 15.2713 6.60248 15.449 6.78454C15.6267 6.9666 15.7266 7.21355 15.7266 7.47102C15.7266 7.72848 15.6267 7.97539 15.449 8.15745C15.2713 8.33951 15.0303 8.44179 14.779 8.44179Z" fill="white"/>
</svg>
