<svg width="24" height="20" viewBox="0 0 24 20" fill="none" xmlns="http://www.w3.org/2000/svg">
<path d="M3.75 16.0001V19.75H0.25L0.25 16L0.25 15.9999C0.249759 15.4274 0.380579 14.8625 0.632434 14.3485C0.884289 13.8344 1.25049 13.3848 1.70298 13.0342C2.15547 12.6835 2.68223 12.4411 3.24289 12.3255C3.69898 12.2315 4.16765 12.2235 4.625 12.3008C4.05005 13.4475 3.74974 14.7141 3.75 16C3.75 16 3.75 16 3.75 16.0001ZM15.75 4C15.75 4.99456 15.3549 5.94839 14.6517 6.65165C13.9484 7.35491 12.9946 7.75 12 7.75C11.0054 7.75 10.0516 7.35491 9.34835 6.65165C8.64509 5.94839 8.25 4.99456 8.25 4C8.25 3.00544 8.64509 2.05161 9.34835 1.34835C10.0516 0.645088 11.0054 0.25 12 0.25C12.9946 0.25 13.9484 0.645088 14.6517 1.34835C15.3549 2.05161 15.75 3.00544 15.75 4ZM22.4167 6.66667C22.4167 7.30761 22.1621 7.9223 21.7088 8.37551C21.2556 8.82872 20.6409 9.08333 20 9.08333C19.3591 9.08333 18.7444 8.82872 18.2912 8.37551C17.8379 7.9223 17.5833 7.30761 17.5833 6.66667C17.5833 6.02573 17.8379 5.41104 18.2912 4.95783C18.7444 4.50461 19.3591 4.25 20 4.25C20.6409 4.25 21.2556 4.50461 21.7088 4.95783C22.1621 5.41104 22.4167 6.02573 22.4167 6.66667ZM15.5945 12.4055C16.5478 13.3589 17.0833 14.6518 17.0833 16V19.75H6.91667V16C6.91667 14.6518 7.45223 13.3589 8.40554 12.4055C9.35885 11.4522 10.6518 10.9167 12 10.9167C13.3482 10.9167 14.6412 11.4522 15.5945 12.4055ZM6.41667 6.66667C6.41667 7.30761 6.16206 7.9223 5.70884 8.37551C5.25563 8.82872 4.64094 9.08333 4 9.08333C3.35906 9.08333 2.74437 8.82872 2.29116 8.37551C1.83795 7.9223 1.58333 7.30761 1.58333 6.66667C1.58333 6.02573 1.83795 5.41104 2.29116 4.95783C2.74437 4.50461 3.35906 4.25 4 4.25C4.64094 4.25 5.25563 4.50461 5.70884 4.95783C6.16206 5.41104 6.41667 6.02573 6.41667 6.66667ZM20.25 19.75V16.0001C20.25 16 20.25 16 20.25 16C20.2503 14.7143 19.9501 13.448 19.3753 12.3014C19.8323 12.2252 20.3003 12.234 20.7557 12.3284C21.3159 12.4445 21.8422 12.6871 22.2944 13.0375C22.7467 13.3879 23.1129 13.837 23.3651 14.3505C23.6174 14.864 23.749 15.4283 23.75 16.0004V19.75H20.25Z" fill="white" stroke="#B6BEC9" stroke-width="0.5"/>
</svg>
