<svg width="20" height="22" viewBox="0 0 20 22" fill="none" xmlns="http://www.w3.org/2000/svg">
<path d="M9.54545 0.804199C10 1.03753 10.9091 2.57753 10.9091 3.6042C10.9091 4.63087 10.3 5.0042 9.54545 5.0042C8.79091 5.0042 8.18182 4.8642 8.18182 3.83753C8.18182 2.81087 9.09091 2.2042 9.54545 0.804199ZM15.9091 8.73753C18.1818 8.73753 20 10.6042 20 12.9375C20 14.3935 19.2818 15.6722 18.1818 16.4282V21.8042H1.81818V16.4282C0.718182 15.6722 0 14.3935 0 12.9375C0 10.6042 1.81818 8.73753 4.09091 8.73753H8.18182V5.93753H10.9091V8.73753H15.9091ZM10 15.2709C10.6028 15.2709 11.1808 15.025 11.6071 14.5874C12.0333 14.1499 12.2727 13.5564 12.2727 12.9375H13.6364C13.6364 13.5564 13.8758 14.1499 14.302 14.5874C14.7282 15.025 15.3063 15.2709 15.9091 15.2709C16.5119 15.2709 17.0899 15.025 17.5162 14.5874C17.9424 14.1499 18.1818 13.5564 18.1818 12.9375C18.1818 12.3187 17.9424 11.7252 17.5162 11.2876C17.0899 10.85 16.5119 10.6042 15.9091 10.6042H4.09091C3.48814 10.6042 2.91007 10.85 2.48385 11.2876C2.05763 11.7252 1.81818 12.3187 1.81818 12.9375C1.81818 13.5564 2.05763 14.1499 2.48385 14.5874C2.91007 15.025 3.48814 15.2709 4.09091 15.2709C4.69367 15.2709 5.27175 15.025 5.69797 14.5874C6.12419 14.1499 6.36364 13.5564 6.36364 12.9375H7.72727C7.72727 13.5564 7.96672 14.1499 8.39294 14.5874C8.81916 15.025 9.39723 15.2709 10 15.2709Z" fill="#ABB7D0"/>
</svg>
