<svg width="87" height="24" viewBox="0 0 87 24" fill="none" xmlns="http://www.w3.org/2000/svg">
<path d="M10.8213 13.4224L12.6646 13.6543V18H1.21436L0.970215 15.9248C1.18994 15.64 1.64974 15.3633 2.34961 15.0947V3.66895C1.65788 3.4248 1.19808 3.14404 0.970215 2.82666L1.21436 0.751465H7.07373L7.31787 2.82666C7.04932 3.14404 6.59359 3.4248 5.95068 3.66895V15.2778H9.89355C10.1133 14.3989 10.4225 13.7804 10.8213 13.4224ZM25.3721 11.4448C25.3721 13.0724 25.0954 14.3826 24.542 15.3755C23.9886 16.3602 23.2358 17.0763 22.2837 17.5239C21.3397 17.9634 20.2736 18.1831 19.0854 18.1831C17.23 18.1831 15.8018 17.6908 14.8008 16.7061C13.8079 15.7132 13.3115 14.049 13.3115 11.7134C13.3115 9.61377 13.8608 8.02279 14.9595 6.94043C16.0662 5.84993 17.5758 5.30469 19.4883 5.30469C21.4414 5.30469 22.9103 5.78483 23.895 6.74512C24.8797 7.7054 25.3721 9.27197 25.3721 11.4448ZM16.9492 11.6523C16.9492 14.3135 17.7508 15.644 19.354 15.644C20.1678 15.644 20.77 15.3429 21.1606 14.7407C21.5513 14.1304 21.7466 13.1335 21.7466 11.75C21.7466 9.15397 20.9287 7.85596 19.293 7.85596C18.4954 7.85596 17.9054 8.14486 17.5229 8.72266C17.1405 9.29232 16.9492 10.2689 16.9492 11.6523ZM32.3789 20.6489C33.86 20.6489 34.6006 19.7578 34.6006 17.9756V16.877C33.7868 17.3734 32.7614 17.6216 31.5244 17.6216C29.9619 17.6216 28.7575 17.1659 27.9111 16.2544C27.0729 15.3348 26.6538 13.8089 26.6538 11.6768C26.6538 7.42871 28.6029 5.30469 32.501 5.30469C33.4938 5.30469 34.4297 5.52035 35.3086 5.95166C35.4632 5.65055 35.7114 5.5 36.0532 5.5H38.104V17.8047C38.104 19.6357 37.6483 20.9907 36.7368 21.8696C35.8335 22.7567 34.4297 23.2002 32.5254 23.2002C31.8581 23.2002 31.1663 23.1473 30.4502 23.0415C29.7422 22.9357 29.083 22.7892 28.4727 22.6021C27.8623 22.4149 27.374 22.2074 27.0078 21.9795C26.9997 21.8981 26.9915 21.8208 26.9834 21.7476C26.9834 21.6743 26.9834 21.6011 26.9834 21.5278C26.9834 20.6082 27.1991 19.7253 27.6304 18.8789H29.8276C30.0148 19.2288 30.1491 19.6927 30.2305 20.2705C30.8571 20.5228 31.5732 20.6489 32.3789 20.6489ZM30.1084 11.5303C30.1084 12.7673 30.2793 13.638 30.6211 14.1426C30.8571 14.4844 31.207 14.7082 31.6709 14.814C32.1348 14.9198 32.6312 14.9198 33.1602 14.814C33.6973 14.7 34.1774 14.4966 34.6006 14.2036V8.271C33.9414 7.9943 33.2171 7.85596 32.4277 7.85596C30.8815 7.85596 30.1084 9.08073 30.1084 11.5303ZM46.6489 2.82666L46.8931 0.751465H52.5693C54.5306 0.751465 55.9629 0.869466 56.8662 1.10547C57.7533 1.34961 58.388 1.63851 58.7705 1.97217C59.625 2.70459 60.0522 3.83171 60.0522 5.35352C60.0522 6.4847 59.4419 7.55892 58.2212 8.57617C59.7756 9.35742 60.5527 10.8141 60.5527 12.9463C60.5527 14.6146 60.0034 15.8556 58.9048 16.6694C57.8143 17.4751 56.1867 17.9186 54.022 18H46.8931L46.6489 15.9248C46.8687 15.64 47.3285 15.3633 48.0283 15.0947V3.66895C47.3366 3.4248 46.8768 3.14404 46.6489 2.82666ZM52.9233 3.47363H51.6294V7.79492H53.668C54.5225 7.79492 55.1735 7.57926 55.6211 7.14795C56.0768 6.71663 56.3047 6.18766 56.3047 5.56104C56.3047 4.93441 56.146 4.4624 55.8286 4.14502C55.5112 3.82764 55.141 3.63639 54.7178 3.57129C54.3027 3.50618 53.7046 3.47363 52.9233 3.47363ZM53.8511 10.5293H51.6294V15.2778H53.3506C54.4818 15.2778 55.3363 15.111 55.9141 14.7773C56.5 14.4355 56.793 13.8333 56.793 12.9707C56.793 12.0999 56.5651 11.4774 56.1094 11.103C55.6536 10.7205 54.9009 10.5293 53.8511 10.5293ZM67.938 18.1953C65.936 18.1953 64.4305 17.6623 63.4214 16.5962C62.4123 15.5301 61.9077 13.9798 61.9077 11.9453C61.9077 10.7165 62.0827 9.65853 62.4326 8.77148C62.7826 7.8763 63.2586 7.18457 63.8608 6.69629C65.0246 5.76855 66.3836 5.30469 67.938 5.30469C68.9715 5.30469 69.8423 5.47559 70.5503 5.81738C71.2664 6.15104 71.8076 6.71663 72.1738 7.51416C72.5482 8.30355 72.7354 9.38184 72.7354 10.749C72.7354 11.9535 72.1413 12.5557 70.9531 12.5557H65.5332C65.5983 13.6055 65.8669 14.346 66.3389 14.7773C66.819 15.2087 67.5758 15.4243 68.6094 15.4243C69.1709 15.4243 69.708 15.3592 70.2207 15.229C70.7415 15.0907 71.12 14.9564 71.356 14.8262L71.71 14.6309L72.4546 16.6206C72.3651 16.7264 72.2227 16.8729 72.0273 17.0601C71.8971 17.1821 71.6326 17.3327 71.2339 17.5117C70.8351 17.6908 70.3468 17.8494 69.769 17.9878C69.1994 18.1261 68.589 18.1953 67.938 18.1953ZM65.5576 10.4805L69.5127 10.3218C69.5452 10.1183 69.5615 9.83757 69.5615 9.47949C69.5615 9.14583 69.4272 8.79183 69.1587 8.41748C68.8901 8.04313 68.4263 7.85596 67.7671 7.85596C67.1079 7.85596 66.6034 8.05534 66.2534 8.4541C65.9035 8.85286 65.6715 9.52832 65.5576 10.4805Z" fill="#032B77"/>
<path d="M80.6577 2.82666L80.9019 0.751465H86.7612L87.0054 2.82666C86.7368 3.14404 86.2811 3.4248 85.6382 3.66895V15.0947C86.2811 15.3551 86.7368 15.6318 87.0054 15.9248L86.7612 18H80.9019L80.6577 15.9248C80.8774 15.64 81.3372 15.3633 82.0371 15.0947V3.66895C81.3454 3.4248 80.8856 3.14404 80.6577 2.82666Z" fill="#1170DF"/>
</svg>
