<svg width="360" height="800" width='100%' height='120%' preserveAspectRatio='none' viewBox="0 0 360 800" fill="none" xmlns="http://www.w3.org/2000/svg">
<g clip-path="url(#clip0_3640_5587)">
<path d="M360 0H0V800H360V0Z" fill="#FAFCFF"/>
<path d="M360 0H0V800H360V0Z" fill="#FAFCFF"/>
<path d="M-116.148 746.372C31.0755 595.28 83.7911 604.273 222.252 746.372C360.713 888.47 363.092 949.122 222.252 1093.66C81.4122 1238.2 19.7226 1233.1 -116.148 1093.66C-252.019 954.221 -263.373 897.463 -116.148 746.372Z" fill="url(#paint0_linear_3640_5587)"/>
<g opacity="0.5">
<path opacity="0.5" d="M321.325 -20.351C492.159 -141.373 542.727 -122.833 655.644 42.0539C768.561 206.94 760.721 266.859 597.295 382.634C433.87 498.408 373.78 482.032 262.976 320.229C152.172 158.426 150.491 100.671 321.325 -20.351Z" fill="#DFECFF"/>
<path opacity="0.5" d="M494.744 -19.5097C474.246 -23.336 430.799 -1.86065 365.612 44.3194C300.45 90.4817 265.846 124.886 262.76 146.576C258.439 176.947 307.515 248.61 325.99 275.589C354.446 317.141 395.666 373.015 424.974 378.486C458.693 384.78 529.681 334.49 553.008 317.964C680.098 227.931 681.95 217.124 592.63 86.6951C573.747 59.1208 523.586 -14.126 494.744 -19.5097ZM507.986 -96.8043C557.068 -87.6425 598.318 -41.6572 655.645 42.0541C768.562 206.941 760.721 266.86 597.296 382.635C516.321 439.999 460.706 464.922 411.732 455.78C361.865 446.472 318.879 401.862 262.976 320.23C152.171 158.427 150.491 100.672 321.325 -20.3508C405.428 -79.9314 460.391 -105.689 507.986 -96.8043Z" fill="#DFECFF"/>
</g>
<path d="M273.797 410.783C98.3155 597.156 34.2152 587.362 -136.527 417.936C-307.269 248.51 -311.371 174.994 -143.499 -3.29713C24.3735 -181.588 99.2771 -176.708 266.825 -10.45C434.374 155.808 449.28 224.41 273.797 410.783Z" fill="url(#paint1_linear_3640_5587)"/>
</g>
<defs>
<linearGradient id="paint0_linear_3640_5587" x1="-135.006" y1="532.103" x2="204.539" y2="873.405" gradientUnits="userSpaceOnUse">
<stop stop-color="#79B7FF" stop-opacity="0.314"/>
<stop offset="1" stop-color="#F7F8FB" stop-opacity="0"/>
</linearGradient>
<linearGradient id="paint1_linear_3640_5587" x1="300.965" y1="670.274" x2="-117.72" y2="263.604" gradientUnits="userSpaceOnUse">
<stop stop-color="#79B7FF" stop-opacity="0.314"/>
<stop offset="1" stop-color="#F7F8FB" stop-opacity="0"/>
</linearGradient>
<clipPath id="clip0_3640_5587">
<rect width="360" height="800" fill="white"/>
</clipPath>
</defs>
</svg>
