<svg width="16" height="18" viewBox="0 0 16 18" fill="none" xmlns="http://www.w3.org/2000/svg">
<path d="M1.81818 18C1.31818 18 0.890303 17.8043 0.534545 17.413C0.178788 17.0217 0.000606061 16.5507 0 16V2C0 1.45 0.178182 0.979333 0.534545 0.588C0.890909 0.196667 1.31879 0.000666666 1.81818 0H7.27273C7.5303 0 7.74636 0.096 7.92091 0.288C8.09545 0.48 8.18242 0.717333 8.18182 0.999999C8.18121 1.28267 8.09394 1.52033 7.92 1.713C7.74606 1.90567 7.5303 2.00133 7.27273 2H1.81818V16H7.27273C7.5303 16 7.74636 16.096 7.92091 16.288C8.09545 16.48 8.18242 16.7173 8.18182 17C8.18121 17.2827 8.09394 17.5203 7.92 17.713C7.74606 17.9057 7.5303 18.0013 7.27273 18H1.81818ZM12.8864 9.99999H6.36364C6.10606 9.99999 5.8903 9.90399 5.71636 9.71199C5.54242 9.51999 5.45515 9.28266 5.45455 8.99999C5.45394 8.71733 5.54121 8.47999 5.71636 8.28799C5.89152 8.09599 6.10727 7.99999 6.36364 7.99999H12.8864L11.1818 6.125C11.0152 5.94166 10.9318 5.71666 10.9318 5.45C10.9318 5.18333 11.0152 4.95 11.1818 4.75C11.3485 4.55 11.5606 4.44566 11.8182 4.437C12.0758 4.42833 12.2955 4.52433 12.4773 4.725L15.7273 8.29999C15.9091 8.49999 16 8.73333 16 8.99999C16 9.26666 15.9091 9.49999 15.7273 9.69999L12.4773 13.275C12.2955 13.475 12.0797 13.571 11.83 13.563C11.5803 13.555 11.3642 13.4507 11.1818 13.25C11.0152 13.05 10.9358 12.8127 10.9436 12.538C10.9515 12.2633 11.0385 12.034 11.2045 11.85L12.8864 9.99999Z" fill="#B6BEC9"/>
</svg>
