<svg width="20" height="23" viewBox="0 0 20 23" fill="none" xmlns="http://www.w3.org/2000/svg">
<path d="M1.55129 18.5447H17.8332C18.8093 18.5447 19.3848 18.0119 19.3848 17.2286C19.3848 16.1408 18.3469 15.1621 17.4532 14.194C16.7751 13.4436 16.5902 11.8992 16.5183 10.6485C16.4363 6.47192 15.3989 3.58959 12.656 2.54543C12.276 1.13142 11.2074 1.52588e-05 9.6975 1.52588e-05C8.1766 1.52588e-05 7.11899 1.13142 6.72847 2.54543C3.99612 3.58959 2.94814 6.47146 2.87626 10.6481C2.7943 11.8992 2.61942 13.4436 1.93129 14.194C1.04768 15.1621 0.000150681 16.1408 0.000150681 17.229C0.000150681 18.0119 0.585717 18.5447 1.55129 18.5447ZM6.56411 20.0241C6.68771 21.6122 7.95088 22.9385 9.6975 22.9385C11.4332 22.9385 12.6968 21.6122 12.8305 20.0241H6.56411Z" fill="#69BAFF" fill-opacity="0.8"/>
</svg>
