<svg width="18" height="16" viewBox="0 0 18 16" fill="none" xmlns="http://www.w3.org/2000/svg">
<path d="M15.7626 15.0134H2.15148C1.63578 15.0134 1.14111 14.8157 0.776455 14.4641C0.411801 14.1125 0.207031 13.6357 0.207031 13.1384V4.70093C0.207031 4.20365 0.411801 3.72687 0.776455 3.37524C1.14111 3.02361 1.63578 2.82593 2.15148 2.82593H4.09592L5.51628 0.482178C5.60144 0.339938 5.72394 0.221579 5.87137 0.139313C6.01879 0.0570466 6.18596 0.0137606 6.35629 0.0134277H11.5091C11.6765 0.0140658 11.841 0.056204 11.9867 0.135651C12.1324 0.215097 12.2544 0.329087 12.3413 0.467072L13.8181 2.82593H15.7626C16.2783 2.82593 16.773 3.02361 17.1376 3.37524C17.5023 3.72687 17.707 4.20365 17.707 4.70093V13.1384C17.707 13.6357 17.5023 14.1125 17.1376 14.4641C16.773 14.8157 16.2783 15.0134 15.7626 15.0134ZM9.01447 4.70093C8.50531 4.69942 8.00072 4.79557 7.53027 4.98337C7.05982 5.17117 6.63277 5.44688 6.27369 5.79498C5.9123 6.14105 5.62568 6.55302 5.43059 7.00668C5.23549 7.46035 5.13585 7.94653 5.13721 8.43765C5.13594 8.9289 5.23574 9.41573 5.43083 9.86954C5.62591 10.3233 5.91236 10.7354 6.27369 11.0817C6.63283 11.4297 7.06007 11.7055 7.5305 11.8933C8.00094 12.0811 8.50532 12.1772 9.01447 12.1758C9.52373 12.1769 10.0281 12.0806 10.4987 11.8929C10.9692 11.7051 11.3965 11.4295 11.756 11.0817C12.4816 10.38 12.8891 9.42911 12.8891 8.43811C12.8891 7.44711 12.4816 6.49671 11.756 5.79498C11.3968 5.44705 10.9698 5.17116 10.4994 4.98337C10.029 4.79558 9.52456 4.69963 9.01542 4.70093H9.01447Z" fill="#ABB7D0"/>
<path d="M8.96007 10.3259C10.034 10.3259 10.9045 9.48646 10.9045 8.45093C10.9045 7.41539 10.034 6.57593 8.96007 6.57593C7.88618 6.57593 7.01562 7.41539 7.01562 8.45093C7.01562 9.48646 7.88618 10.3259 8.96007 10.3259Z" fill="#ABB7D0"/>
</svg>
