<svg width="19" height="14" viewBox="0 0 19 14" fill="none" xmlns="http://www.w3.org/2000/svg">
<path d="M1.43359 3.19482V11.8936C1.43507 12.3546 1.63253 12.7963 1.98283 13.1223C2.33313 13.4483 2.80782 13.632 3.30322 13.6334H16.3906C16.886 13.632 17.3607 13.4483 17.711 13.1223C18.0613 12.7963 18.2587 12.3546 18.2602 11.8936V3.19482" fill="#ABB7D0"/>
<path d="M2.00391 13.1136L7.70625 7.80737" stroke="white" stroke-linecap="round" stroke-linejoin="round"/>
<path d="M12 7.80737L17.7023 13.1136" stroke="white" stroke-linecap="round" stroke-linejoin="round"/>
<path d="M1.43361 3.02185C1.44082 3.27845 1.51215 3.52995 1.64196 3.75644C1.77177 3.98292 1.95648 4.17816 2.18146 4.32667L7.79032 7.89319C8.41461 8.27615 9.14591 8.48027 9.89365 8.48027C10.6414 8.48027 11.3727 8.27615 11.997 7.89319L17.6058 4.41366C17.9915 4.03482 18.223 3.54256 18.2602 3.02185C18.2611 2.81601 18.2181 2.61203 18.1339 2.4217C18.0496 2.23137 17.9257 2.05844 17.7693 1.91288C17.6129 1.76732 17.427 1.65202 17.2225 1.57361C17.018 1.49521 16.7988 1.45526 16.5775 1.45607H3.11627C2.89505 1.45526 2.67586 1.49521 2.47132 1.57361C2.26678 1.65202 2.08094 1.76732 1.92452 1.91288C1.76809 2.05844 1.64418 2.23137 1.55993 2.4217C1.47567 2.61203 1.43274 2.81601 1.43361 3.02185Z" fill="#ABB7D0" stroke="white" stroke-linecap="round" stroke-linejoin="round"/>
</svg>
