<svg width="125" height="129" viewBox="0 0 125 129" fill="none" xmlns="http://www.w3.org/2000/svg">
<path d="M62.8019 1.97043C60.2742 1.97043 57.7517 2.43399 55.0901 3.38763C52.3998 4.3516 49.6148 5.79833 46.5761 7.81049C40.8067 11.6309 34.1049 17.5305 25.485 26.3769C16.7949 35.2952 11.0179 42.2876 7.30433 48.3822C5.37438 51.5496 4.00488 54.4613 3.11763 57.2838C2.24305 60.066 1.85421 62.7104 1.9289 65.3681C2.07481 70.5609 4.00247 75.8195 7.99535 81.9171C11.6156 87.4456 17.0096 93.7898 25.485 102.488C33.737 110.957 40.211 116.62 45.8589 120.31C48.8925 122.292 51.6972 123.721 54.4332 124.678C57.1778 125.639 59.7998 126.106 62.449 126.106C65.0645 126.106 67.6607 125.651 70.3858 124.715C73.131 123.772 75.9443 122.364 78.9864 120.41C84.8201 116.662 91.3853 110.967 99.6475 102.488C108.044 93.8709 113.655 87.1021 117.305 81.186C119.234 78.0595 120.619 75.1758 121.54 72.3701C122.457 69.5775 122.895 66.9169 122.88 64.2362C122.864 61.5616 122.397 58.908 121.452 56.1239C120.507 53.3414 119.103 50.4807 117.16 47.3781C113.536 41.5923 107.971 34.919 99.6475 26.3769C90.8953 17.3947 84.5531 11.7227 79.0835 7.98604C73.076 3.88194 67.9024 1.97043 62.8019 1.97043ZM62.8019 0C74.0885 0 85.0355 8.59427 101.005 24.9835C132.461 57.2655 133.001 71.0446 101.005 103.881C85.1517 120.151 73.7108 128.076 62.4489 128.076C50.9818 128.076 39.7004 119.863 24.1273 103.881C-6.73998 72.203 -9.31906 59.3086 24.1273 24.9835C40.5933 8.08496 51.8573 0 62.8019 0Z" fill="#F0F4FA"/>
</svg>
