<svg width="17" height="17" viewBox="0 0 17 17" fill="none" xmlns="http://www.w3.org/2000/svg">
<path d="M14.5411 5.02334L11.8238 2.30672C11.5958 2.07875 11.2866 1.95068 10.9641 1.95068C10.6417 1.95068 10.3324 2.07875 10.1044 2.30672L2.6063 9.80419C2.493 9.9168 2.40316 10.0508 2.342 10.1984C2.28084 10.3459 2.24957 10.5042 2.25 10.6639V13.3812C2.25 13.7037 2.37812 14.013 2.60617 14.241C2.83422 14.4691 3.14353 14.5972 3.46604 14.5972H13.6807C13.8742 14.5972 14.0598 14.5203 14.1967 14.3835C14.3335 14.2467 14.4104 14.0611 14.4104 13.8676C14.4104 13.6741 14.3335 13.4885 14.1967 13.3516C14.0598 13.2148 13.8742 13.1379 13.6807 13.1379H8.14778L14.5411 6.74343C14.6541 6.6305 14.7437 6.49642 14.8048 6.34886C14.866 6.20129 14.8974 6.04312 14.8974 5.88339C14.8974 5.72365 14.866 5.56548 14.8048 5.41792C14.7437 5.27035 14.6541 5.13627 14.5411 5.02334ZM6.08051 13.1379H3.70925V10.7667L8.81659 5.65933L11.1879 8.0306L6.08051 13.1379ZM12.2215 6.99697L9.85022 4.6257L10.9653 3.5106L13.3366 5.88187L12.2215 6.99697Z" fill="#ABB7D0"/>
</svg>
